<?xml version="1.0" encoding="utf-8"?>
<svg version="1.1" xmlns="http://www.w3.org/2000/svg" width="327" height="290" xmlns:bx="https://boxy-svg.com" viewBox="0 0 327 290"><defs><bx:export><bx:file format="svg"/></bx:export></defs><path d="M 0 0 C 6.044 5.56 10.517 14.459 11.051 22.66 C 11.353 34.597 9.89 42.935 1.984 52.309 C 0.528 54.068 0.528 54.068 0.813 57 C 5.236 58.639 9.315 59.391 14 59.875 C 25.667 61.291 36.974 64.975 44.734 74.313 C 51.31 83.832 50.956 94.744 49.199 105.891 C 42.923 131.881 25.4 152.408 3.157 166.588 C -3.95 170.868 -11.427 174.105 -19.187 177 C -20.179 177.371 -21.17 177.743 -22.191 178.125 C -37.435 183.62 -48.741 184.964 -64.187 180 C -65.522 179.621 -66.858 179.246 -68.195 178.875 C -87.466 173.082 -106.937 162.325 -119.187 146 C -119.945 145.014 -120.703 144.028 -121.484 143.012 C -126.804 135.86 -130.499 128.534 -133.187 120 C -133.489 119.053 -133.489 119.053 -133.797 118.086 C -135.255 110.301 -135.493 100.829 -131.187 94 C -123.932 85.294 -112.978 80.862 -101.937 79.25 C -101.03 79.168 -100.122 79.085 -99.187 79 C -98.596 76.801 -98.596 76.801 -99.187 74 C -100.622 72.357 -100.622 72.357 -102.437 70.75 C -107.662 65.791 -109.983 61.355 -110.426 54.09 C -110.475 50.388 -110.363 46.698 -110.187 43 C -114.886 43.49 -114.886 43.49 -118.5 46.375 C -121.17 50.528 -121.307 53.575 -121.285 58.418 C -121.282 59.672 -121.279 60.925 -121.275 62.217 C -121.267 63.527 -121.259 64.837 -121.25 66.188 C -121.245 67.523 -121.24 68.858 -121.236 70.193 C -121.225 73.462 -121.208 76.731 -121.187 80 C -130.912 70.535 -137.111 57.6 -137.5 43.875 C -137.396 36.827 -135.96 30.35 -131.387 24.824 C -126.699 20.427 -122.365 18.103 -115.809 17.941 C -110.124 18.21 -106.482 19.569 -101.977 23.039 C -100.226 24.202 -100.226 24.202 -98.18 23.746 C -96.32 23.05 -94.501 22.247 -92.687 21.438 C -86.407 19.091 -79.811 18.855 -73.406 20.879 C -65.484 24.494 -61.07 29.294 -57.812 37.313 C -54.918 46.177 -55.47 54.444 -59.187 63 C -62.959 69.603 -68.482 75.602 -75.922 77.813 C -78.342 78.305 -80.736 78.709 -83.187 79 C -83.011 80.952 -83.011 80.952 -82.187 83 C -80.325 84.223 -80.325 84.223 -77.961 85 C -77.093 85.33 -76.226 85.66 -75.332 86 C -73.961 86.495 -73.961 86.495 -72.562 87 C -66.441 89.268 -60.761 91.579 -55.187 95 C -54.798 94.383 -54.409 93.765 -54.008 93.129 C -46.1 81.158 -36.801 74.73 -24.021 68.853 C -21.381 67.625 -18.785 66.315 -16.187 65 C -16.517 63.68 -16.847 62.36 -17.187 61 C -18.094 60.853 -19 60.706 -19.934 60.555 C -30.251 58.655 -38.257 55.531 -44.836 47.078 C -51.323 37.103 -52.406 27.568 -51.187 16 C -49.218 7.682 -43.28 0.871 -36.312 -3.875 C -24.179 -10.782 -10.731 -8.349 0 0 Z M -47.75 110.875 C -50.393 113.602 -50.393 113.602 -50.187 116 C -51.25 115.374 -52.312 114.747 -53.406 114.102 C -54.833 113.276 -56.26 112.45 -57.687 111.625 C -58.384 111.213 -59.08 110.8 -59.797 110.375 C -68.255 105.519 -76.445 104.136 -86.187 105 C -90.076 106.25 -91.734 107.534 -94.562 110.438 C -96.896 115.553 -96.852 120.456 -96.187 126 C -95.103 128.786 -95.745 129.433 -93.147 130.961 C -92.529 131.209 -93.204 131.882 -92.566 132.137 C -92.788 132.857 -90.631 133.441 -90.859 134.184 C -91.498 139.665 -87.353 143.801 -84.187 148 C -81.095 151.652 -77.882 155.143 -74.553 158.579 C -73.299 159.884 -72.075 161.22 -70.855 162.559 C -65.817 167.923 -60.296 172.411 -54.375 176.75 C -53.645 177.3 -52.915 177.851 -52.164 178.418 C -48.233 181.371 -48.233 181.371 -43.555 181.633 C -40.61 179.602 -37.823 177.468 -35.125 175.125 C -34.561 174.639 -33.996 174.153 -33.415 173.652 C -15.31 157.862 3.795 137.372 6.813 112.5 C 7.155 105.487 5.99 98.723 1.313 93.242 C -2.72 89.714 -6.445 88.635 -11.75 88.723 C -26.458 90.396 -38.254 100.153 -47.75 110.875 Z" fill="#0F5CA4" transform="translate(195.1875,104)"/><path d="M 0 0 C 0.606 0.467 1.212 0.933 1.836 1.414 C 3.586 2.577 3.586 2.577 5.633 2.121 C 7.493 1.425 9.312 0.622 11.125 -0.187 C 17.406 -2.534 24.001 -2.77 30.406 -0.746 C 38.329 2.869 42.743 7.669 46 15.688 C 48.894 24.552 48.342 32.819 44.625 41.375 C 40.854 47.978 35.331 53.977 27.891 56.188 C 25.47 56.68 23.077 57.084 20.625 57.375 C 20.804 59.328 20.804 59.328 21.625 61.375 C 23.472 62.582 23.472 62.582 25.816 63.34 C 26.679 63.665 27.542 63.991 28.432 64.326 C 29.796 64.814 29.796 64.814 31.188 65.313 C 45.48 70.522 45.48 70.522 49.625 74.375 C 50.59 77.496 50.59 77.496 50.563 80.813 C 50.598 85.135 50.81 89.121 51.625 93.375 C 46.739 91.516 42.192 89.13 37.563 86.715 C 30.394 83.445 21.515 83.078 14.063 85.563 C 11.261 87.646 10.163 89.251 8.625 92.375 C 8.228 95.395 8.228 95.395 8.375 98.5 C 8.39 99.534 8.406 100.568 8.422 101.633 C 8.519 104.466 8.519 104.466 9.625 107.375 C 12.123 109.074 10.292 110.421 12.795 111.722 C 12.573 112.443 13.326 113.68 13.916 114.592 C 15.479 119.245 17.459 122.177 20.625 126.375 C 24.096 130.56 27.853 134.463 31.625 138.375 C 32.321 139.146 33.017 139.917 33.734 140.711 C 38.448 145.772 43.719 149.846 49.313 153.875 C 50.038 154.404 50.763 154.933 51.51 155.479 C 55.529 158.295 58.584 160.057 63.625 160.375 C 60.564 162.194 58.868 162.577 55.387 161.871 C 54.574 161.71 53.762 161.549 52.925 161.384 C 52.063 161.195 51.201 161.007 50.313 160.813 C 49.418 160.623 48.524 160.433 47.603 160.237 C 23.937 155.034 -0.435 144.284 -15.375 124.375 C -16.512 122.896 -16.512 122.896 -17.672 121.387 C -22.992 114.235 -26.686 106.909 -29.375 98.375 C -29.677 97.428 -29.677 97.428 -29.984 96.461 C -31.442 88.676 -31.68 79.204 -27.375 72.375 C -20.12 63.669 -9.165 59.237 1.875 57.625 C 2.782 57.543 3.69 57.46 4.625 57.375 C 5.217 55.176 5.217 55.176 4.625 52.375 C 3.191 50.732 3.191 50.732 1.375 49.125 C -3.849 44.166 -6.171 39.73 -6.613 32.465 C -6.663 28.763 -6.55 25.073 -6.375 21.375 C -11.073 21.865 -11.073 21.865 -14.687 24.75 C -17.357 28.903 -17.495 31.95 -17.473 36.793 C -17.469 38.047 -17.466 39.3 -17.463 40.592 C -17.455 41.902 -17.446 43.212 -17.437 44.563 C -17.432 45.898 -17.428 47.233 -17.424 48.568 C -17.412 51.837 -17.396 55.106 -17.375 58.375 C -27.099 48.91 -33.298 35.975 -33.687 22.25 C -33.583 15.202 -32.148 8.725 -27.574 3.199 C -19.693 -4.192 -9.249 -6.183 0 0 Z" fill="#DA4A76" transform="translate(91.375,125.625)"/><path d="M0 0 C15.18 0 30.36 0 46 0 C47.90741959 1.90741959 47.21704808 5.39468268 47.25634766 7.99487305 C47.27095032 8.72665268 47.28555298 9.45843231 47.30059814 10.21238708 C47.42673281 16.97380623 47.49536993 23.73641685 47.54844093 30.4987669 C47.58420173 35.04391413 47.63748411 39.58729115 47.73388672 44.1315918 C47.82676299 48.52255529 47.87536968 52.91195245 47.89283371 57.30384254 C47.90692255 58.97653217 47.93655158 60.64916705 47.98213577 62.32129478 C48.32215748 75.4370734 48.32215748 75.4370734 45.00457764 79.35879517 C42.7085793 80.91558015 40.5881666 82.02112478 38 83 C37.01 83.495 37.01 83.495 36 84 C36.78246094 84.56589844 37.56492187 85.13179688 38.37109375 85.71484375 C39.38300781 86.44832031 40.39492188 87.18179688 41.4375 87.9375 C42.44683594 88.66839844 43.45617187 89.39929688 44.49609375 90.15234375 C47.93775983 92.69198191 47.93775983 92.69198191 48.6875 96.40234375 C48.60616649 102.10458558 44.79463399 105.0476106 40.92578125 108.82617188 C39.95083308 109.738615 38.97557088 110.65072269 38 111.5625 C37.06542969 112.46935547 36.13085938 113.37621094 35.16796875 114.31054688 C27.85120809 121.36636013 20.35701133 128.11602035 12.25 134.25 C11.69957031 134.67023438 11.14914063 135.09046875 10.58203125 135.5234375 C9.05751953 136.68601478 7.52890646 137.84320834 6 139 C5.25234375 139.59296875 4.5046875 140.1859375 3.734375 140.796875 C2 142 2 142 0 142 C0 95.14 0 48.28 0 0 Z " fill="#E4AE5A" transform="translate(232,1)"/><path d="M0 0 C-0.66 14.52 -1.32 29.04 -2 44 C-6.11525712 42.97118572 -6.80462466 42.50903532 -9.5 39.5625 C-11.84285671 37.01198099 -13.81374275 35.39049384 -17 34 C-17.54527344 34.75023437 -18.09054687 35.50046875 -18.65234375 36.2734375 C-23.13832064 42.36209674 -27.75354048 48.13553268 -32.88671875 53.703125 C-34.78496432 55.76628284 -36.61710613 57.86839125 -38.4375 60 C-45.9098822 68.53741139 -54.08248745 76.00446807 -63 83 C-63.51997559 83.41282227 -64.03995117 83.82564453 -64.57568359 84.25097656 C-84.6803754 100.20170649 -84.6803754 100.20170649 -88.88671875 99.8359375 C-89.58410156 99.56007813 -90.28148437 99.28421875 -91 99 C-92.06734375 98.60683594 -93.1346875 98.21367187 -94.234375 97.80859375 C-95.39453125 97.35613281 -96.5546875 96.90367187 -97.75 96.4375 C-98.92046875 95.98246094 -100.0909375 95.52742188 -101.296875 95.05859375 C-102.63492188 94.53458984 -102.63492188 94.53458984 -104 94 C-102.68713457 90.06140372 -100.32592012 89.09253649 -96.9375 87.0625 C-71.37446842 71.15845328 -47.7662913 50.34060173 -30 26 C-34.29 24.02 -38.58 22.04 -43 20 C-42 17 -42 17 -39.59838867 15.63720703 C-38.5488501 15.18200684 -37.49931152 14.72680664 -36.41796875 14.2578125 C-34.67676758 13.49404297 -34.67676758 13.49404297 -32.90039062 12.71484375 C-31.66283594 12.18471949 -30.42520538 11.65477233 -29.1875 11.125 C-28.00478516 10.60808594 -26.82207031 10.09117188 -25.60351562 9.55859375 C-22.0760072 8.02220226 -18.53940252 6.50875998 -15 5 C-13.85869629 4.5059668 -12.71739258 4.01193359 -11.54150391 3.50292969 C-10.47206543 3.04563477 -9.40262695 2.58833984 -8.30078125 2.1171875 C-7.34985596 1.70839355 -6.39893066 1.29959961 -5.41918945 0.87841797 C-3 0 -3 0 0 0 Z " fill="#DCA452" transform="translate(327,67)"/><path d="M0 0 C0.93767212 -0.00315216 1.87534424 -0.00630432 2.84143066 -0.009552 C3.86119995 -0.00752777 4.88096924 -0.00550354 5.93164062 -0.00341797 C7.49078186 -0.00485306 7.49078186 -0.00485306 9.0814209 -0.00631714 C11.28393616 -0.0069991 13.48645342 -0.00514374 15.68896484 -0.00097656 C19.07328782 0.00437146 22.45747806 -0.00092105 25.84179688 -0.00732422 C27.97591175 -0.00666344 30.11002655 -0.00538228 32.24414062 -0.00341797 C33.26390991 -0.0054422 34.2836792 -0.00746643 35.33435059 -0.009552 C36.74085876 -0.00482376 36.74085876 -0.00482376 38.17578125 0 C39.42035095 0.00119339 39.42035095 0.00119339 40.69006348 0.00241089 C42.58789062 0.12939453 42.58789062 0.12939453 43.58789062 1.12939453 C43.6820275 3.18496115 43.7053206 5.24379634 43.70141602 7.30151367 C43.70156204 7.94539536 43.70170807 8.58927704 43.70185852 9.25267029 C43.70115948 11.38999756 43.69336753 13.52723866 43.68554688 15.66455078 C43.68368266 17.14285738 43.68225878 18.6211646 43.68125916 20.09947205 C43.67743421 23.99738255 43.66760414 27.89525602 43.65655518 31.79315186 C43.64634054 35.76785786 43.64176142 39.74256982 43.63671875 43.71728516 C43.62598184 51.52133853 43.60890572 59.32536135 43.58789062 67.12939453 C41.39470256 64.98199248 39.60271533 62.83028253 37.83789062 60.31689453 C30.82620389 50.92778084 22.27713479 46.27187298 10.72363281 44.47216797 C7.36480151 44.10500827 4.10639693 44.05673418 0.72851562 44.08251953 C-1.00350098 44.0926709 -1.00350098 44.0926709 -2.77050781 44.10302734 C-3.64223633 44.11172852 -4.51396484 44.12042969 -5.41210938 44.12939453 C-5.43675451 38.02384743 -5.45494308 31.91832902 -5.46704102 25.81274414 C-5.47208226 23.73396297 -5.47891512 21.65518537 -5.48754883 19.57641602 C-5.4996236 16.59536867 -5.50533962 13.61436804 -5.50976562 10.63330078 C-5.51750755 9.23018394 -5.51750755 9.23018394 -5.52540588 7.79872131 C-5.52548141 6.93790451 -5.52555695 6.07708771 -5.52563477 5.19018555 C-5.52785538 4.42851578 -5.53007599 3.66684601 -5.53236389 2.88209534 C-5.28768899 -0.68402353 -3.03679569 0.00291192 0 0 Z " fill="#AACD60" transform="translate(168.412109375,44.87060546875)"/><path d="M0 0 C1.22270177 35.77534801 -10.89150282 70.32617086 -34.8515625 97.06640625 C-40.31559397 102.8115093 -46.6008619 107.36519569 -53 112 C-53.71671875 112.60199219 -54.4334375 113.20398438 -55.171875 113.82421875 C-55.77515625 114.21222656 -56.3784375 114.60023438 -57 115 C-57.99 114.67 -58.98 114.34 -60 114 C-59.05125 113.13375 -58.1025 112.2675 -57.125 111.375 C-44.14962158 98.24234427 -35.33696181 81.15192156 -32 63 C-31.773125 61.80375 -31.54625 60.6075 -31.3125 59.375 C-30.30253876 48.46741863 -31.15562057 38.51144103 -37 29 C-37 28.34 -37 27.68 -37 27 C-35.59814453 25.79833984 -35.59814453 25.79833984 -33.6328125 24.4609375 C-32.91665771 23.96682373 -32.20050293 23.47270996 -31.46264648 22.96362305 C-30.69122314 22.43937744 -29.9197998 21.91513184 -29.125 21.375 C-20.14869717 15.1594932 -11.64339683 8.63983971 -3.59375 1.25 C-2 0 -2 0 0 0 Z " fill="#19579C" transform="translate(283,145)"/><path d="M0 0 C6.6 0 13.2 0 20 0 C19.67 1.98 19.34 3.96 19 6 C17.94495836 19.58457057 19.02664148 32.08158996 24.61328125 44.62109375 C28.09381805 53.10183835 25.39698035 60.21107206 23 69 C15.41 69 7.82 69 0 69 C0 46.23 0 23.46 0 0 Z " fill="#25853F" transform="translate(30,133)"/><path d="M0 0 C15.84 0 31.68 0 48 0 C48 10.82014388 48 10.82014388 44 15 C43.0122214 17.07173564 42.09431051 19.17827065 41.25 21.3125 C40.82203125 22.38113281 40.3940625 23.44976562 39.953125 24.55078125 C39.48132813 25.76314453 39.48132813 25.76314453 39 27 C35.66659466 25.72425228 32.5713359 24.26463422 29.4375 22.5625 C20.03282849 17.83926497 10.40185098 16.6191578 0 16 C0 10.72 0 5.44 0 0 Z " fill="#328D4A" transform="translate(96,90)"/><path d="M0 0 C0.51272461 0.2266333 1.02544922 0.4532666 1.55371094 0.68676758 C17.99532633 8.26598692 17.99532633 8.26598692 35.671875 11.05078125 C48.22884646 11.26352885 48.22884646 11.26352885 51.47119141 14.44238281 C54.00330311 18.29270997 55.47718712 22.59345214 57.09130859 26.88574219 C58.54549684 30.2692108 60.59929141 33.06200903 62.875 35.9375 C63.2887085 36.46214844 63.70241699 36.98679688 64.12866211 37.52734375 C68.25961427 42.57815002 72.9699998 46.85827643 78 51 C77.505 51.99 77.505 51.99 77 53 C54.55200038 41.33308971 33.74050721 28.75858374 13.5625 13.4375 C12.66845459 12.75880859 11.77440918 12.08011719 10.85327148 11.38085938 C3.11999707 5.44489587 3.11999707 5.44489587 0 2 C0 1.34 0 0.68 0 0 Z " fill="#C23D60" transform="translate(6,215)"/><path d="M0 0 C1.134375 0.4125 2.26875 0.825 3.4375 1.25 C19.16409309 6.37876529 34.53038569 7.99623842 51 9 C51.495 14.445 51.495 14.445 52 20 C34.81809066 19.50626697 15.49166601 16.68224718 2.625 4.125 C0 1.24137931 0 1.24137931 0 0 Z " fill="#70B74E" transform="translate(2,201)"/><path d="M0 0 C2.52259061 1.97420135 2.9929808 2.96745642 3.6875 6.1875 C3.790625 7.115625 3.89375 8.04375 4 9 C1.5625 8.1875 1.5625 8.1875 -1 7 C-1.33 6.01 -1.66 5.02 -2 4 C-1.34 4 -0.68 4 0 4 C0 2.68 0 1.36 0 0 Z " fill="#D95886" transform="translate(139,210)"/><path d="M0 0 C4 1 4 1 4 1 Z " fill="#FEFEFE" transform="translate(77,289)"/></svg>