<?xml version="1.0" encoding="utf-8"?>
<svg version="1.1" xmlns="http://www.w3.org/2000/svg" width="1078" height="290" xmlns:bx="https://boxy-svg.com" viewBox="0 0 1078 290"><defs><bx:export><bx:file format="svg"/></bx:export></defs><path d="M 0 0 C 6.044 5.56 10.517 14.459 11.051 22.66 C 11.353 34.597 9.89 42.935 1.984 52.309 C 0.528 54.068 0.528 54.068 0.813 57 C 5.39 58.722 9.576 59.376 14.438 59.813 C 24.975 60.963 35.136 64.374 42.813 72 C 50.331 81.443 50.637 90.285 49.813 102 C 49.251 105.174 48.503 108.158 47.574 111.242 C 46.805 114.027 32.089 140.447 30.75 142.188 C 12.646 164.692 -15.536 179.941 -44.187 184 C -49.826 184.03 -54.803 182.583 -60.187 181 C -62.931 180.413 -64.814 179.323 -67.643 179.177 C -71.348 178.042 -74.048 174.797 -75.337 174.677 C -76.388 174.169 -79.289 174.984 -80.371 174.461 C -87.969 170.752 -95.409 167.102 -102.187 162 C -103.056 161.357 -103.925 160.714 -104.82 160.051 C -118.988 149.06 -130.77 133.92 -134.187 116 C -135.02 106.531 -135.244 98.868 -129 91.375 C -122.224 85.653 -113.32 80 -104.187 80 C -103.143 77.005 -102.355 74.177 -102.187 71 C -104.123 68.05 -104.123 68.05 -105.805 66.426 C -110.445 61.642 -110.413 56.377 -110.375 50.063 C -110.337 47.706 -110.269 45.355 -110.187 43 C -114.886 43.49 -114.886 43.49 -118.5 46.375 C -121.17 50.528 -121.307 53.575 -121.285 58.418 C -121.282 59.672 -121.279 60.925 -121.275 62.217 C -121.267 63.527 -121.259 64.837 -121.25 66.188 C -121.245 67.523 -121.24 68.858 -121.236 70.193 C -121.225 73.462 -121.208 76.731 -121.187 80 C -130.982 70.62 -137.113 57.531 -137.5 43.875 C -137.396 36.831 -135.98 30.31 -131.352 24.824 C -126.59 20.418 -122.414 18.372 -115.937 17.625 C -110.297 18.189 -104.272 19.915 -100.187 24 C -97.386 23.592 -95.309 22.608 -92.687 21.438 C -86.407 19.091 -79.811 18.855 -73.406 20.879 C -65.484 24.494 -61.07 29.294 -57.812 37.313 C -54.918 46.177 -55.47 54.444 -59.187 63 C -63.201 70.027 -68.988 75.223 -76.437 78.375 C -79.187 79 -79.187 79 -83.187 79 C -83.011 80.952 -83.011 80.952 -82.187 83 C -80.325 84.223 -80.325 84.223 -77.961 85 C -77.093 85.33 -76.226 85.66 -75.332 86 C -73.961 86.495 -73.961 86.495 -72.562 87 C -66.441 89.268 -60.761 91.579 -55.187 95 C -54.798 94.383 -54.409 93.765 -54.008 93.129 C -46.1 81.158 -36.801 74.73 -24.021 68.853 C -21.381 67.625 -18.785 66.315 -16.187 65 C -16.517 63.68 -16.847 62.36 -17.187 61 C -18.094 60.853 -19 60.706 -19.934 60.555 C -30.251 58.655 -38.257 55.531 -44.836 47.078 C -51.323 37.103 -52.406 27.568 -51.187 16 C -49.218 7.682 -43.28 0.871 -36.312 -3.875 C -24.179 -10.782 -10.731 -8.349 0 0 Z M -47.75 110.875 C -50.393 113.602 -50.393 113.602 -50.187 116 C -51.25 115.374 -52.312 114.747 -53.406 114.102 C -54.833 113.276 -56.26 112.45 -57.687 111.625 C -58.384 111.213 -59.08 110.8 -59.797 110.375 C -68.255 105.519 -76.445 104.136 -86.187 105 C -90.076 106.25 -91.734 107.534 -94.562 110.438 C -96.896 115.553 -96.852 120.456 -96.187 126 C -95.103 128.786 -96.417 130.437 -93.819 131.965 C -93.201 132.213 -92.595 134.927 -92.823 135.67 C -93.462 141.151 -87.353 143.801 -84.187 148 C -81.095 151.652 -77.882 155.143 -74.553 158.579 C -73.299 159.884 -72.075 161.22 -70.855 162.559 C -65.817 167.923 -60.296 172.411 -54.375 176.75 C -53.645 177.3 -52.915 177.851 -52.164 178.418 C -48.233 181.371 -48.233 181.371 -43.555 181.633 C -40.61 179.602 -37.823 177.468 -35.125 175.125 C -34.561 174.639 -33.996 174.153 -33.415 173.652 C -15.31 157.862 3.795 137.372 6.813 112.5 C 7.155 105.487 5.99 98.723 1.313 93.242 C -2.72 89.714 -6.445 88.635 -11.75 88.723 C -26.458 90.396 -38.254 100.153 -47.75 110.875 Z" fill="#0E5CA4" transform="translate(195.1875,104)"/><path d="M 0 0 C 0.66 0.66 1.32 1.32 2 2 C 4.802 1.592 6.879 0.608 9.5 -0.562 C 15.781 -2.909 22.376 -3.145 28.781 -1.121 C 36.704 2.494 41.118 7.294 44.375 15.313 C 47.269 24.177 46.717 32.444 43 41 C 38.986 48.027 33.199 53.223 25.75 56.375 C 23 57 23 57 19 57 C 19.179 58.953 19.179 58.953 20 61 C 21.847 62.207 21.847 62.207 24.191 62.965 C 25.054 63.29 25.917 63.616 26.807 63.951 C 28.171 64.439 28.171 64.439 29.563 64.938 C 43.855 70.147 43.855 70.147 48 74 C 48.965 77.121 48.965 77.121 48.938 80.438 C 48.973 84.76 49.185 88.746 50 93 C 45.114 91.141 40.567 88.755 35.938 86.34 C 28.769 83.07 19.89 82.703 12.438 85.188 C 9.636 87.271 8.538 88.876 7 92 C 6.603 95.02 6.603 95.02 6.75 98.125 C 6.765 99.159 6.781 100.193 6.797 101.258 C 6.894 104.091 6.894 104.091 8 107 C 8.602 109.548 15.834 121.802 19 126 C 22.471 130.185 26.228 134.088 30 138 C 30.696 138.771 31.392 139.542 32.109 140.336 C 36.823 145.397 42.094 149.471 47.688 153.5 C 48.413 154.029 49.138 154.558 49.885 155.104 C 53.904 157.92 56.959 159.682 62 160 C 59.179 162.014 57.909 161.989 54.391 161.574 C 53.008 161.292 51.627 160.996 50.25 160.688 C 42.185 158.932 43.259 159.066 35.074 158.134 C 35.137 157.842 34.109 157.994 32.492 157.083 C 31.441 156.575 22.899 152.984 21.816 152.461 C 14.219 148.752 6.778 145.102 0 140 C -0.869 139.357 -1.738 138.714 -2.633 138.051 C -16.8 127.06 -28.583 111.92 -32 94 C -32.832 84.531 -33.057 76.868 -26.812 69.375 C -20.036 63.653 -11.133 58 -2 58 C -0.955 55.005 -0.167 52.177 0 49 C -1.936 46.05 -1.936 46.05 -3.617 44.426 C -8.257 39.642 -8.225 34.377 -8.187 28.063 C -8.149 25.706 -8.082 23.355 -8 21 C -12.698 21.49 -12.698 21.49 -16.312 24.375 C -18.982 28.528 -19.12 31.575 -19.098 36.418 C -19.094 37.672 -19.091 38.925 -19.088 40.217 C -19.08 41.527 -19.071 42.837 -19.062 44.188 C -19.057 45.523 -19.053 46.858 -19.049 48.193 C -19.037 51.462 -19.021 54.731 -19 58 C -28.794 48.62 -34.925 35.531 -35.312 21.875 C -35.208 14.831 -33.793 8.31 -29.164 2.824 C -19.995 -5.659 -10.817 -5.418 0 0 Z" fill="#DA4A75" transform="translate(93,126)"/><path d="M 0 0 C 6.533 -0.025 13.066 -0.043 19.598 -0.055 C 21.823 -0.06 24.047 -0.067 26.271 -0.075 C 29.461 -0.088 32.65 -0.093 35.84 -0.098 C 37.341 -0.105 37.341 -0.105 38.873 -0.113 C 39.794 -0.113 40.715 -0.113 41.664 -0.114 C 42.479 -0.116 43.294 -0.118 44.133 -0.12 C 46 0 46 0 47 1 C 47.143 3.34 47.221 5.652 47.256 7.995 C 47.271 8.727 47.286 9.458 47.301 10.212 C 47.427 16.974 47.495 23.736 47.548 30.499 C 47.584 35.044 47.637 39.587 47.734 44.132 C 47.827 48.523 47.875 52.912 47.893 57.304 C 47.907 58.977 47.937 60.649 47.982 62.321 C 48.322 75.414 48.322 75.414 45.005 79.394 C 42.102 81.395 39.588 83 36 83 C 40.003 87.311 44.168 90.756 50 92 C 49.117 101.224 44.432 105.442 37.875 111.625 C 36.949 112.527 36.024 113.43 35.07 114.359 C 27.125 122.058 18.914 129.222 10.125 135.938 C 9.367 136.526 8.609 137.114 7.828 137.721 C 7.104 138.276 6.379 138.831 5.633 139.402 C 4.982 139.902 4.331 140.402 3.661 140.918 C 2 142 2 142 0 142 C 0 140.35 -0.685 125.659 -0.722 122.9 C -0.71 121.82 -0.699 120.741 -0.688 119.628 C -0.686 118.438 -0.683 117.249 -0.681 116.023 C -0.671 114.774 -0.661 113.525 -0.651 112.239 C -0.625 108.809 -0.608 105.38 -0.595 101.95 C -0.58 98.368 -0.553 94.786 -0.527 91.204 C -0.48 84.418 -0.444 77.633 -0.411 70.847 C -0.372 63.123 -0.323 55.399 -0.273 47.674 C -0.169 31.783 -0.08 15.892 0 0 Z" fill="#E3AC56" transform="translate(232,1)"/><path d="M0 0 C-0.44770609 2.81457894 -0.90757217 5.62619129 -1.375 8.4375 C-1.56449219 9.64116211 -1.56449219 9.64116211 -1.7578125 10.86914062 C-2.10482796 12.92520723 -2.54590428 14.96490131 -3 17 C-3.66 17.33 -4.32 17.66 -5 18 C-7.20703125 17.2578125 -7.20703125 17.2578125 -9.8125 16.125 C-19.28266103 12.02747193 -31.6392289 10.97397677 -41.5 14.5625 C-49.84653444 18.57444765 -55.38142116 24.51252037 -59 33 C-60.91832366 38.49146498 -61.59455492 44.22005032 -62 50 C-62.09861328 51.23169922 -62.09861328 51.23169922 -62.19921875 52.48828125 C-62.68909034 63.89046489 -59.64304067 77.22526446 -52 86 C-44.10754556 92.54063266 -35.66537706 94.34171598 -25.625 93.875 C-17.20739485 93.04915931 -9.79557698 90.11823079 -2 87 C-1.505 95.415 -1.505 95.415 -1 104 C-18.3419287 111.66271268 -38.6810395 114.73773285 -57 108 C-70.71043341 102.11726753 -79.67522324 93.76176077 -85.31591797 79.86914062 C-91.06984466 64.14749083 -90.91852822 45.29632056 -84.7109375 29.77734375 C-78.20440646 16.01620457 -68.75527929 5.86792537 -54.4375 0.0625 C-36.98341209 -5.92057978 -17.55339089 -5.8511303 0 0 Z " fill="#DA4D78" transform="translate(443,121)"/><path d="M0 0 C5.65422588 3.69699384 7.83201413 7.80252474 10 14 C10.56692327 16.78100659 10.69615388 19.47877078 10.75 22.3125 C10.77819824 23.11921143 10.80639648 23.92592285 10.83544922 24.75708008 C11.10924565 34.22856587 11.09941872 43.71254139 11.125 53.1875 C11.12786011 54.00964996 11.13072021 54.83179993 11.13366699 55.67886353 C11.13941651 58.02944691 11.13755216 60.3798856 11.1328125 62.73046875 C11.13477631 63.44935272 11.13674011 64.16823669 11.13876343 64.90890503 C11.11534075 69.88465925 11.11534075 69.88465925 10 71 C6.86927777 71.37925315 3.71142896 71.46972287 0.5625 71.625 C-0.32244141 71.6765625 -1.20738281 71.728125 -2.11914062 71.78125 C-2.96541016 71.82507813 -3.81167969 71.86890625 -4.68359375 71.9140625 C-5.46275146 71.9548291 -6.24190918 71.9955957 -7.04467773 72.03759766 C-9 72 -9 72 -11 71 C-11.00586624 70.39944794 -11.01173248 69.79889587 -11.01777649 69.18014526 C-11.08181217 62.91796652 -11.16625822 56.65629685 -11.26245117 50.39453125 C-11.29566333 48.05898763 -11.32370676 45.72336447 -11.34643555 43.38769531 C-11.38004901 40.02634855 -11.43237003 36.66572831 -11.48828125 33.3046875 C-11.49467117 32.26384003 -11.5010611 31.22299255 -11.50764465 30.15060425 C-11.61683462 24.74154848 -11.83499523 20.61077101 -15 16 C-18.97612957 13.87323302 -22.32499288 13.84766379 -26.77734375 14.3203125 C-31.86319402 15.85183278 -31.86319402 15.85183278 -36 19 C-37.07709022 22.89793339 -36.95369198 26.74286954 -36.90234375 30.765625 C-36.92078087 32.48842682 -36.92078087 32.48842682 -36.93959045 34.24603271 C-36.97138545 37.91466707 -36.95502257 41.58130171 -36.9375 45.25 C-36.95060479 47.7369979 -36.96684249 50.22398141 -36.98632812 52.7109375 C-37.02723986 58.80759085 -37.02861741 64.90329803 -37 71 C-40.29119935 71.1964031 -43.58296934 71.38060745 -46.875 71.5625 C-48.28072266 71.64661133 -48.28072266 71.64661133 -49.71484375 71.73242188 C-50.61074219 71.78076172 -51.50664063 71.82910156 -52.4296875 71.87890625 C-53.67081299 71.94960327 -53.67081299 71.94960327 -54.93701172 72.02172852 C-57 72 -57 72 -59 71 C-59.33 47.57 -59.66 24.14 -60 0 C-46.5 -2.25 -46.5 -2.25 -40 -2 C-39.34 0.97 -38.68 3.94 -38 7 C-37.46632813 6.61328125 -36.93265625 6.2265625 -36.3828125 5.828125 C-25.26226537 -1.94471417 -12.9008667 -7.00332764 0 0 Z " fill="#1B5496" transform="translate(801,159)"/><path d="M0 0 C5.64044046 4.98457529 8.34231823 11.33945468 10.6875 18.375 C10.6875 23.985 10.6875 29.595 10.6875 35.375 C-4.1625 35.705 -19.0125 36.035 -34.3125 36.375 C-33.67186109 45.06436874 -33.67186109 45.06436874 -29.3125 51.375 C-23.59385444 55.41989564 -16.43709628 55.81263885 -9.625 55.08984375 C-4.48400424 54.15725458 -0.06052702 52.50676723 4.6875 50.375 C5.6775 50.375 6.6675 50.375 7.6875 50.375 C7.6875 54.995 7.6875 59.615 7.6875 64.375 C-7.02063329 70.50338887 -22.37601285 73.67368541 -37.7578125 67.64453125 C-47.30776913 62.8987577 -52.55783711 56.22878666 -56.3125 46.375 C-59.70661566 34.4030284 -57.90808231 19.82584285 -52.02734375 9.01171875 C-47.07760705 1.69052046 -39.59504659 -2.9518668 -31.109375 -5.15234375 C-19.46834798 -7.11961228 -10.41285562 -5.10819332 0 0 Z M-33.3125 12.375 C-35.23473716 16.47020091 -35.3125 18.73897229 -35.3125 23.375 C-26.7325 23.375 -18.1525 23.375 -9.3125 23.375 C-10.17050991 12.2868025 -10.17050991 12.2868025 -13.875 8.125 C-21.65549438 4.16402105 -27.84834732 5.56033231 -33.3125 12.375 Z " fill="#1D5394" transform="translate(946.3125,161.625)"/><path d="M0 0 C4.69171553 3.64045977 7.452768 7.97918078 8.2396698 13.94113159 C8.36954515 16.47318992 8.41252864 18.99197724 8.421875 21.52734375 C8.43745453 22.46086166 8.45303406 23.39437958 8.46908569 24.35618591 C8.51634671 27.32859405 8.54422592 30.30077497 8.5703125 33.2734375 C8.61905593 37.17066721 8.67563509 41.06775311 8.734375 44.96484375 C8.7472052 45.89801422 8.7600354 46.83118469 8.77325439 47.79263306 C8.89103 55.13438613 9.32220926 62.39202815 9.9453125 69.7109375 C3.3453125 69.7109375 -3.2546875 69.7109375 -10.0546875 69.7109375 C-10.7146875 67.7309375 -11.3746875 65.7509375 -12.0546875 63.7109375 C-12.64636719 64.12085938 -13.23804688 64.53078125 -13.84765625 64.953125 C-14.63785156 65.49195313 -15.42804688 66.03078125 -16.2421875 66.5859375 C-17.01949219 67.11960937 -17.79679687 67.65328125 -18.59765625 68.203125 C-25.75663099 72.5963909 -33.28771494 72.73742129 -41.46875 71.28125 C-47.73198081 69.32247897 -51.1688196 64.88262443 -54.4296875 59.3984375 C-56.05761319 52.39835703 -55.8321842 44.97078917 -52.0546875 38.7109375 C-45.22442602 30.51462372 -34.25521552 27.80988941 -24.0546875 26.7109375 C-20.37986574 26.57381729 -16.72940314 26.58299769 -13.0546875 26.7109375 C-13.19720733 19.28922631 -13.19720733 19.28922631 -15.9296875 12.5234375 C-22.40971734 8.76502019 -29.391349 10.40447787 -36.3671875 12.1484375 C-37.31207031 12.41527344 -38.25695312 12.68210938 -39.23046875 12.95703125 C-42.12795425 13.73049557 -45.09654667 14.21791403 -48.0546875 14.7109375 C-48.0546875 10.0909375 -48.0546875 5.4709375 -48.0546875 0.7109375 C-33.19084239 -3.63603607 -14.31706802 -8.98219096 0 0 Z M-32.6796875 42.9609375 C-34.45636398 46.51429047 -34.54602469 48.78024001 -34.0546875 52.7109375 C-32.30739972 56.43897215 -32.30739972 56.43897215 -29.0546875 58.7109375 C-24.35609942 59.28416525 -20.90496495 59.12834643 -16.6171875 57.0234375 C-13.83900372 54.51629604 -13.10379298 53.2447665 -12.0546875 49.7109375 C-12.02548291 46.57704851 -12.02548291 46.57704851 -12.4296875 43.3984375 C-12.54054688 42.32980469 -12.65140625 41.26117188 -12.765625 40.16015625 C-12.86101562 39.35191406 -12.95640625 38.54367188 -13.0546875 37.7109375 C-20.12013981 37.25014713 -27.17346578 38.24131888 -32.6796875 42.9609375 Z " fill="#DB4F7A" transform="translate(503.0546875,160.2890625)"/><path d="M0 0 C5.29347511 4.12565601 7.1433028 8.10997849 8.72265625 14.55859375 C9.14024876 18.27305033 9.18683896 21.95589152 9.19921875 25.69140625 C9.21479828 26.72748016 9.23037781 27.76355408 9.24642944 28.83102417 C9.29361375 32.11520689 9.32159332 35.39918158 9.34765625 38.68359375 C9.38429705 41.9749985 9.42503822 45.26628936 9.4703064 48.55758667 C9.49726526 50.59765927 9.5187299 52.6378143 9.53384399 54.67800903 C9.54410614 55.60942719 9.55436829 56.54084534 9.56494141 57.50048828 C9.57143707 58.310513 9.57793274 59.12053772 9.58462524 59.95510864 C9.75529154 63.17414746 10.26677605 66.36743235 10.72265625 69.55859375 C4.12265625 69.55859375 -2.47734375 69.55859375 -9.27734375 69.55859375 C-9.93734375 67.57859375 -10.59734375 65.59859375 -11.27734375 63.55859375 C-11.86902344 63.96851563 -12.46070313 64.3784375 -13.0703125 64.80078125 C-13.86050781 65.33960938 -14.65070312 65.8784375 -15.46484375 66.43359375 C-16.24214844 66.96726562 -17.01945313 67.5009375 -17.8203125 68.05078125 C-24.99570664 72.45412328 -32.45404858 72.52436191 -40.65625 71.1640625 C-46.42996169 69.41274095 -49.90233216 65.4066767 -53.27734375 60.55859375 C-56.15721958 55.15882657 -55.62699771 49.3855429 -54.27734375 43.55859375 C-51.58756957 37.11703122 -47.60411404 33.32195838 -41.24609375 30.5546875 C-31.77684206 27.37750437 -22.24037038 25.99933862 -12.27734375 26.55859375 C-12.53294575 24.61902561 -12.80739021 22.68193386 -13.08984375 20.74609375 C-13.24066406 19.66714844 -13.39148438 18.58820313 -13.546875 17.4765625 C-14.30462313 14.44962211 -14.79544046 13.36743852 -17.27734375 11.55859375 C-25.60226491 8.78362003 -33.48529591 10.89980796 -41.52734375 13.68359375 C-44.27734375 14.55859375 -44.27734375 14.55859375 -47.27734375 14.55859375 C-47.27734375 9.93859375 -47.27734375 5.31859375 -47.27734375 0.55859375 C-32.56837503 -4.0942433 -14.1496614 -8.95578912 0 0 Z M-32.64453125 43.13671875 C-34.31074167 46.41015869 -34.25269017 48.72295096 -33.71484375 52.30859375 C-31.9346967 56.38893444 -31.9346967 56.38893444 -28.27734375 58.55859375 C-23.33722711 59.11634885 -21.27448421 59.11256067 -16.90234375 56.68359375 C-14.30896728 54.66000714 -14.30896728 54.66000714 -12.27734375 52.55859375 C-12.1323639 49.97795246 -12.0905683 47.50915491 -12.15234375 44.93359375 C-12.16136719 44.2271875 -12.17039062 43.52078125 -12.1796875 42.79296875 C-12.20326772 41.04803277 -12.23913914 39.3032708 -12.27734375 37.55859375 C-19.34902457 37.10235628 -27.62583747 37.34371222 -32.64453125 43.13671875 Z " fill="#DA5079" transform="translate(636.27734375,160.44140625)"/><path d="M0 0 C0 6.93 0 13.86 0 21 C6.93 21 13.86 21 21 21 C21 25.29 21 29.58 21 34 C14.07 34 7.14 34 0 34 C0.11992076 39.62351839 0.24258353 45.24683633 0.37231445 50.87011719 C0.41560857 52.78284146 0.45728756 54.695603 0.49731445 56.60839844 C0.5551508 59.35883818 0.61880676 62.10909128 0.68359375 64.859375 C0.70030624 65.71368103 0.71701874 66.56798706 0.73423767 67.44818115 C0.7641555 68.64897308 0.7641555 68.64897308 0.79467773 69.87402344 C0.81799416 70.92659332 0.81799416 70.92659332 0.84178162 72.00042725 C1.00726836 74.09185797 1.43584497 75.98256308 2 78 C8.58439314 79.1181045 14.35928403 78.74708055 21 78 C20.505 83.94 20.505 83.94 20 90 C11.07553342 94.12923081 2.01596426 97.3615187 -7.796875 94.05859375 C-12.53676737 91.82186939 -16.33607826 89.66186305 -19 85 C-21.09577537 79.14838702 -21.26417578 73.87099504 -21.1953125 67.69140625 C-21.1924826 66.72468491 -21.18965271 65.75796356 -21.18673706 64.76194763 C-21.17560407 61.69533548 -21.15051224 58.62902285 -21.125 55.5625 C-21.11496131 53.47461361 -21.10583701 51.38672262 -21.09765625 49.29882812 C-21.07568727 44.19910456 -21.04120507 39.09960295 -21 34 C-25.29 34 -29.58 34 -34 34 C-34 29.71 -34 25.42 -34 21 C-29.71 21 -25.42 21 -21 21 C-21 14.73 -21 8.46 -21 2 C-17.87613178 1.47139132 -14.75122645 0.95180018 -11.625 0.4375 C-10.73554687 0.28603516 -9.84609375 0.13457031 -8.9296875 -0.02148438 C-8.07890625 -0.16005859 -7.228125 -0.29863281 -6.3515625 -0.44140625 C-5.56604004 -0.57232666 -4.78051758 -0.70324707 -3.97119141 -0.83813477 C-2 -1 -2 -1 0 0 Z " fill="#134C8F" transform="translate(1054,137)"/><path d="M0 0 C7.59 0 15.18 0 23 0 C25.47888113 6.19720282 27.8011451 12.17911037 29.7265625 18.52734375 C30.20571327 20.07617679 30.68488039 21.62500478 31.1640625 23.17382812 C31.90042261 25.5719405 32.63511517 27.97055681 33.36914062 30.36938477 C34.0884468 32.71495869 34.81352848 35.05869017 35.5390625 37.40234375 C35.75680328 38.12107162 35.97454407 38.8397995 36.19888306 39.58030701 C37.18530782 42.76205555 38.13691813 45.2053772 40 48 C40.20044922 47.36312256 40.40089844 46.72624512 40.60742188 46.07006836 C45.4818986 30.61902719 50.59725045 15.2742627 56 0 C62.27 0 68.54 0 75 0 C71.62828371 10.11514886 71.62828371 10.11514886 69.65234375 15.08984375 C69.21672119 16.19158936 68.78109863 17.29333496 68.33227539 18.4284668 C67.87199951 19.58644775 67.41172363 20.74442871 66.9375 21.9375 C65.95486341 24.42153805 64.97283848 26.90580378 63.9921875 29.390625 C63.74382645 30.01958176 63.49546539 30.64853851 63.23957825 31.29655457 C60.21534611 38.96905377 57.27517626 46.67401729 54.34936523 54.38452148 C53.77617554 55.88607788 53.77617554 55.88607788 53.19140625 57.41796875 C52.86342041 58.28188232 52.53543457 59.1457959 52.19750977 60.03588867 C50.56876199 64.06741298 48.76593225 68.02665244 47 72 C40.07 72 33.14 72 26 72 C25.34515625 70.19402344 24.6903125 68.38804687 24.015625 66.52734375 C23.09459954 63.99708213 22.17287848 61.46708536 21.25 58.9375 C21.00789795 58.27350189 20.7657959 57.60950378 20.51635742 56.92538452 C17.65330783 49.08472474 14.74089092 41.26699716 11.703125 33.4921875 C11.29963837 32.45853813 11.29963837 32.45853813 10.88800049 31.40400696 C9.59201346 28.08927092 8.28801391 24.7779424 6.97363281 21.47045898 C6.49764648 20.25946533 6.02166016 19.04847168 5.53125 17.80078125 C5.11423828 16.75059814 4.69722656 15.70041504 4.26757812 14.6184082 C2.58931497 9.82766509 1.33563607 4.89733225 0 0 Z " fill="#1A5293" transform="translate(815,158)"/><path d="M0 0 C-0.14076315 1.9587043 -0.2877676 3.91696093 -0.4375 5.875 C-0.51871094 6.96554688 -0.59992187 8.05609375 -0.68359375 9.1796875 C-1 12 -1 12 -2 14 C-4.71344815 13.52115621 -7.17215911 12.93620129 -9.76171875 11.9765625 C-13.23061869 10.93045275 -16.07300161 10.73320791 -19.6875 10.75 C-21.36392578 10.74226562 -21.36392578 10.74226562 -23.07421875 10.734375 C-26.19106235 10.78273215 -26.19106235 10.78273215 -29 13 C-30.15317663 15.97903963 -30.0448029 16.86559131 -29 20 C-26.95511363 21.21862294 -26.95511363 21.21862294 -24.40625 22.19921875 C-23.4575 22.60462891 -22.50875 23.01003906 -21.53125 23.42773438 C-19.54397792 24.25363031 -17.55445746 25.0741414 -15.5625 25.88867188 C-7.6274229 29.29627555 0.49471918 33.77296771 4.0625 42.0625 C6.0348334 48.9589583 5.35541441 55.66945147 2 62 C-3.39191457 68.290567 -9.85665557 71.69980215 -18 73 C-28.76321873 73.5885251 -41.1153714 73.9423143 -51 69 C-50.85816304 67.24967156 -50.71136571 65.49974466 -50.5625 63.75 C-50.48128906 62.77546875 -50.40007813 61.8009375 -50.31640625 60.796875 C-50.04925416 58.43538247 -49.64628032 56.28098935 -49 54 C-45.26088464 54.6458472 -41.9219748 55.72879923 -38.375 57.0625 C-32.0062703 59.22472305 -25.25949797 60.55093219 -18.7578125 58.18359375 C-16.62994305 57.00878172 -16.62994305 57.00878172 -15.875 53.6875 C-15.58519449 49.83407247 -15.58519449 49.83407247 -18.55078125 47.453125 C-21.87749882 44.87843715 -25.3497397 43.48218048 -29.3125 42.0625 C-44.11607481 36.45648767 -44.11607481 36.45648767 -48.5 29.625 C-51.44703204 22.5030059 -51.67827768 16.21795834 -49 9 C-44.80543865 2.46141907 -39.49773984 0.22727714 -32.4375 -2.25 C-21.53824268 -4.6221913 -10.57644797 -2.996363 0 0 Z " fill="#1E5596" transform="translate(1014,159)"/><path d="M0 0 C-0.14076315 1.9587043 -0.2877676 3.91696093 -0.4375 5.875 C-0.51871094 6.96554688 -0.59992187 8.05609375 -0.68359375 9.1796875 C-1 12 -1 12 -2 14 C-2.72703125 13.7834375 -3.4540625 13.566875 -4.203125 13.34375 C-12.67203242 10.9985141 -21.38173869 9.47956509 -30 12 C-30.42409219 16.26576733 -30.42409219 16.26576733 -28.5390625 19.953125 C-25.04069001 22.77335144 -21.25622283 24.29144904 -17.125 26 C-0.99999126 32.73409826 -0.99999126 32.73409826 3 40 C5.18858441 46.773202 5.48330457 52.34022866 3 59 C-0.95074414 66.08409294 -5.94647004 69.65044854 -13.515625 72.23828125 C-25.08406016 74.7672553 -40.25539422 74.37230289 -51 69 C-50.85879286 67.06215735 -50.71187127 65.12473045 -50.5625 63.1875 C-50.48128906 62.10855469 -50.40007813 61.02960938 -50.31640625 59.91796875 C-50 57 -50 57 -49 54 C-40 57 -40 57 -37.140625 58.078125 C-33.60790371 59.11509294 -30.5530898 59.33527981 -26.875 59.375 C-25.07675781 59.41753906 -25.07675781 59.41753906 -23.2421875 59.4609375 C-19.93325848 59.25963724 -19.93325848 59.25963724 -17.5859375 57.16015625 C-15.74708909 55.04895884 -15.74708909 55.04895884 -15.75 52.0625 C-17.63235181 47.45073805 -20.61028881 46.11043807 -25 44 C-27.30909286 43.05413919 -29.6218764 42.11725796 -31.9375 41.1875 C-39.39609311 38.0664149 -46.34011592 33.99599363 -50.0625 26.5 C-51.74522201 20.21783784 -51.62960656 14.85184031 -49.08984375 8.8828125 C-45.63353835 2.91170425 -39.74054518 -0.20533361 -33.3515625 -2.30859375 C-22.23169392 -4.60255265 -10.73139255 -3.53504696 0 0 Z " fill="#D94D78" transform="translate(572,159)"/><path d="M0 0 C-0.59071149 14.67091825 -1.23765184 29.3369631 -2 44 C-5 44 -5 44 -6.90234375 42.3203125 C-7.57394531 41.59585938 -8.24554688 40.87140625 -8.9375 40.125 C-11.47732918 37.3943166 -13.55029296 35.46631843 -17 34 C-17.70962891 35.01707031 -17.70962891 35.01707031 -18.43359375 36.0546875 C-22.60231802 41.92178091 -26.97470967 47.3836931 -31.85546875 52.671875 C-33.74554605 54.72376219 -35.56657964 56.81400879 -37.375 58.9375 C-45.17200762 67.84836586 -53.67859613 75.71212733 -63 83 C-64.06512938 83.8450203 -65.13023273 84.69007342 -66.1953125 85.53515625 C-84.77775419 100.17302983 -84.77775419 100.17302983 -89.55859375 99.80078125 C-91.88263591 99.03849542 -93.91372689 98.1619608 -96.0625 97 C-98.69753714 95.58073247 -101.06803463 94.62687901 -104 94 C-102.68713457 90.06140372 -100.32592012 89.09253649 -96.9375 87.0625 C-71.37446842 71.15845328 -47.7662913 50.34060173 -30 26 C-34.29 24.02 -38.58 22.04 -43 20 C-43 19.01 -43 18.02 -43 17 C-41.55947266 16.41605469 -41.55947266 16.41605469 -40.08984375 15.8203125 C-38.70545646 15.25587675 -37.32136864 14.69070619 -35.9375 14.125 C-35.19612793 13.82198975 -34.45475586 13.51897949 -33.69091797 13.20678711 C-29.05326469 11.29724877 -24.44561996 9.3298068 -19.85546875 7.30859375 C-18.82236572 6.85403809 -17.7892627 6.39948242 -16.72485352 5.93115234 C-14.67504123 5.0261159 -12.62730594 4.11635907 -10.58178711 3.20166016 C-9.63956299 2.78577637 -8.69733887 2.36989258 -7.7265625 1.94140625 C-6.46706787 1.37981812 -6.46706787 1.37981812 -5.18212891 0.80688477 C-3 0 -3 0 0 0 Z " fill="#DCA352" transform="translate(327,67)"/><path d="M0 0 C6.93 0 13.86 0 21 0 C22 1 22 1 22.12304783 2.82534122 C22.12166514 4.02966376 22.12166514 4.02966376 22.12025452 5.25831604 C22.12162918 6.1768335 22.12300385 7.09535095 22.12442017 8.04170227 C22.12082489 9.05733749 22.11722961 10.07297272 22.11352539 11.11938477 C22.11367142 12.18266998 22.11381744 13.2459552 22.1139679 14.34146118 C22.11326825 17.87479658 22.10547343 21.40808 22.09765625 24.94140625 C22.09579225 27.38378368 22.09436827 29.82616149 22.09336853 32.26853943 C22.08954189 38.71134464 22.07971037 45.15412748 22.06866455 51.59692383 C22.05845356 58.16552426 22.05387158 64.7341283 22.04882812 71.30273438 C22.03808823 84.20183435 22.02049025 97.10091182 22 110 C14.74 110 7.48 110 0 110 C0 73.7 0 37.4 0 0 Z " fill="#165093" transform="translate(702,120)"/><path d="M0 0 C0.93767212 -0.00315216 1.87534424 -0.00630432 2.84143066 -0.009552 C3.86119995 -0.00752777 4.88096924 -0.00550354 5.93164062 -0.00341797 C7.49078186 -0.00485306 7.49078186 -0.00485306 9.0814209 -0.00631714 C11.28393616 -0.0069991 13.48645342 -0.00514374 15.68896484 -0.00097656 C19.07328782 0.00437146 22.45747806 -0.00092105 25.84179688 -0.00732422 C27.97591175 -0.00666344 30.11002655 -0.00538228 32.24414062 -0.00341797 C33.26390991 -0.0054422 34.2836792 -0.00746643 35.33435059 -0.009552 C36.74085876 -0.00482376 36.74085876 -0.00482376 38.17578125 0 C39.42035095 0.00119339 39.42035095 0.00119339 40.69006348 0.00241089 C42.58789062 0.12939453 42.58789062 0.12939453 43.58789062 1.12939453 C43.6820275 3.18496115 43.7053206 5.24379634 43.70141602 7.30151367 C43.70156204 7.94539536 43.70170807 8.58927704 43.70185852 9.25267029 C43.70115948 11.38999756 43.69336753 13.52723866 43.68554688 15.66455078 C43.68368266 17.14285738 43.68225878 18.6211646 43.68125916 20.09947205 C43.67743421 23.99738255 43.66760414 27.89525602 43.65655518 31.79315186 C43.64634054 35.76785786 43.64176142 39.74256982 43.63671875 43.71728516 C43.62598184 51.52133853 43.60890572 59.32536135 43.58789062 67.12939453 C41.39470256 64.98199248 39.60271533 62.83028253 37.83789062 60.31689453 C30.82620389 50.92778084 22.27713479 46.27187298 10.72363281 44.47216797 C7.36480151 44.10500827 4.10639693 44.05673418 0.72851562 44.08251953 C-1.00350098 44.0926709 -1.00350098 44.0926709 -2.77050781 44.10302734 C-3.64223633 44.11172852 -4.51396484 44.12042969 -5.41210938 44.12939453 C-5.43675451 38.02384743 -5.45494308 31.91832902 -5.46704102 25.81274414 C-5.47208226 23.73396297 -5.47891512 21.65518537 -5.48754883 19.57641602 C-5.4996236 16.59536867 -5.50533962 13.61436804 -5.50976562 10.63330078 C-5.51750755 9.23018394 -5.51750755 9.23018394 -5.52540588 7.79872131 C-5.52548141 6.93790451 -5.52555695 6.07708771 -5.52563477 5.19018555 C-5.52785538 4.42851578 -5.53007599 3.66684601 -5.53236389 2.88209534 C-5.28768899 -0.68402353 -3.03679569 0.00291192 0 0 Z " fill="#ABCD61" transform="translate(168.412109375,44.87060546875)"/><path d="M0 0 C0 36.96 0 73.92 0 112 C-6.93 112 -13.86 112 -21 112 C-21.02254805 97.67505236 -21.04091336 83.3501164 -21.05181217 69.02515507 C-21.05704174 62.3742647 -21.06414072 55.72339214 -21.07543945 49.07250977 C-21.08626571 42.65997123 -21.09227628 36.24744496 -21.09487724 29.83489799 C-21.09673197 27.38235722 -21.10035347 24.92981715 -21.10573006 22.47728157 C-21.11293702 19.05523323 -21.11399109 15.63323629 -21.11352539 12.21118164 C-21.11712067 11.18619568 -21.12071594 10.16120972 -21.12442017 9.10516357 C-21.1230455 8.17823196 -21.12167084 7.25130035 -21.12025452 6.29627991 C-21.12117631 5.48602387 -21.1220981 4.67576784 -21.12304783 3.8409586 C-21 2 -21 2 -20 1 C-13.18559216 0.01081177 -6.98824356 0 0 0 Z " fill="#D94C77" transform="translate(681,118)"/><path d="M0 0 C1.20741456 35.32805557 -10.62757748 69.77792114 -34.109375 96.390625 C-40.91074453 103.48986472 -48.82955471 109.55303648 -57 115 C-57.99 114.67 -58.98 114.34 -60 114 C-59.05125 113.13375 -58.1025 112.2675 -57.125 111.375 C-44.14962158 98.24234427 -35.33696181 81.15192156 -32 63 C-31.773125 61.80375 -31.54625 60.6075 -31.3125 59.375 C-30.30253876 48.46741863 -31.15562057 38.51144103 -37 29 C-37 28.34 -37 27.68 -37 27 C-35.61401367 25.81420898 -35.61401367 25.81420898 -33.66796875 24.49609375 C-32.95688965 24.00705566 -32.24581055 23.51801758 -31.51318359 23.01416016 C-30.36197021 22.23371338 -30.36197021 22.23371338 -29.1875 21.4375 C-20.67005594 15.55088568 -12.72363007 9.26827669 -4.9375 2.4375 C-2 0 -2 0 0 0 Z " fill="#1A579D" transform="translate(283,145)"/><path d="M0 0 C6.6 0 13.2 0 20 0 C19.67 1.98 19.34 3.96 19 6 C17.94495836 19.58457057 19.02664148 32.08158996 24.61328125 44.62109375 C28.09381805 53.10183835 25.39698035 60.21107206 23 69 C15.41 69 7.82 69 0 69 C0 46.23 0 23.46 0 0 Z " fill="#25853F" transform="translate(30,133)"/><path d="M0 0 C15.84 0 31.68 0 48 0 C48 10.82014388 48 10.82014388 44 15 C43.0122214 17.07173564 42.09431051 19.17827065 41.25 21.3125 C40.82203125 22.38113281 40.3940625 23.44976562 39.953125 24.55078125 C39.48132813 25.76314453 39.48132813 25.76314453 39 27 C35.66659466 25.72425228 32.5713359 24.26463422 29.4375 22.5625 C20.03282849 17.83926497 10.40185098 16.6191578 0 16 C0 10.72 0 5.44 0 0 Z " fill="#328D4A" transform="translate(96,90)"/><path d="M0 0 C0.51272461 0.2266333 1.02544922 0.4532666 1.55371094 0.68676758 C17.99532633 8.26598692 17.99532633 8.26598692 35.671875 11.05078125 C48.22884646 11.26352885 48.22884646 11.26352885 51.47119141 14.44238281 C54.00330311 18.29270997 55.47718712 22.59345214 57.09130859 26.88574219 C58.54549684 30.2692108 60.59929141 33.06200903 62.875 35.9375 C63.2887085 36.46214844 63.70241699 36.98679688 64.12866211 37.52734375 C68.25961427 42.57815002 72.9699998 46.85827643 78 51 C77.505 51.99 77.505 51.99 77 53 C54.55200038 41.33308971 33.74050721 28.75858374 13.5625 13.4375 C12.66845459 12.75880859 11.77440918 12.08011719 10.85327148 11.38085938 C3.11999707 5.44489587 3.11999707 5.44489587 0 2 C0 1.34 0 0.68 0 0 Z " fill="#C23D60" transform="translate(6,215)"/><path d="M0 0 C1.134375 0.4125 2.26875 0.825 3.4375 1.25 C19.16409309 6.37876529 34.53038569 7.99623842 51 9 C51.495 14.445 51.495 14.445 52 20 C34.81809066 19.50626697 15.49166601 16.68224718 2.625 4.125 C0 1.24137931 0 1.24137931 0 0 Z " fill="#70B74E" transform="translate(2,201)"/><path d="M0 0 C2.52259061 1.97420135 2.9929808 2.96745642 3.6875 6.1875 C3.790625 7.115625 3.89375 8.04375 4 9 C1.5625 8.1875 1.5625 8.1875 -1 7 C-1.33 6.01 -1.66 5.02 -2 4 C-1.34 4 -0.68 4 0 4 C0 2.68 0 1.36 0 0 Z " fill="#D95886" transform="translate(139,210)"/></svg>